<mxfile host="app.diagrams.net" agent="Mozilla/5.0 (Windows NT 10.0; Win64; x64) AppleWebKit/537.36 (KHTML, like Gecko) Chrome/138.0.0.0 Safari/537.36" version="28.1.0">
  <diagram name="Page-1" id="2msC91JC_MIpyobTlM8V">
    <mxGraphModel dx="1426" dy="777" grid="0" gridSize="10" guides="1" tooltips="1" connect="1" arrows="1" fold="1" page="1" pageScale="1" pageWidth="1700" pageHeight="1100" math="0" shadow="0">
      <root>
        <mxCell id="0" />
        <mxCell id="1" parent="0" />
        <mxCell id="2rLz22v1sMBaOfcuC89U-31" value="" style="rounded=1;whiteSpace=wrap;html=1;fillColor=#E6E6E6;glass=1;shadow=0;" vertex="1" parent="1">
          <mxGeometry x="619.52" y="508" width="153.65" height="85" as="geometry" />
        </mxCell>
        <mxCell id="2rLz22v1sMBaOfcuC89U-41" style="edgeStyle=orthogonalEdgeStyle;rounded=0;orthogonalLoop=1;jettySize=auto;html=1;entryX=0;entryY=0.5;entryDx=0;entryDy=0;" edge="1" parent="1" source="2rLz22v1sMBaOfcuC89U-22" target="2rLz22v1sMBaOfcuC89U-17">
          <mxGeometry relative="1" as="geometry" />
        </mxCell>
        <mxCell id="2rLz22v1sMBaOfcuC89U-22" value="&lt;div style=&quot;&quot;&gt;&lt;font style=&quot;font-size: 10px;&quot;&gt;&lt;br&gt;&lt;/font&gt;&lt;/div&gt;&lt;span style=&quot;background-color: rgb(255, 255, 255);&quot;&gt;&lt;font style=&quot;font-size: 10px;&quot;&gt;&lt;div style=&quot;&quot;&gt;&lt;span style=&quot;background-color: light-dark(rgb(255, 255, 255), rgb(18, 18, 18)); color: light-dark(rgb(0, 0, 0), rgb(255, 255, 255));&quot;&gt;&lt;br&gt;&lt;/span&gt;&lt;/div&gt;&lt;div style=&quot;&quot;&gt;&lt;span style=&quot;background-color: light-dark(rgb(255, 255, 255), rgb(18, 18, 18)); color: light-dark(rgb(0, 0, 0), rgb(255, 255, 255));&quot;&gt;&lt;br&gt;&lt;/span&gt;&lt;/div&gt;&lt;div style=&quot;&quot;&gt;&lt;span style=&quot;background-color: light-dark(rgb(255, 255, 255), rgb(18, 18, 18)); color: light-dark(rgb(0, 0, 0), rgb(255, 255, 255));&quot;&gt;&lt;br&gt;&lt;/span&gt;&lt;/div&gt;&lt;div style=&quot;&quot;&gt;&lt;span style=&quot;background-color: light-dark(rgb(255, 255, 255), rgb(18, 18, 18)); color: light-dark(rgb(0, 0, 0), rgb(255, 255, 255));&quot;&gt;&lt;br&gt;&lt;/span&gt;&lt;/div&gt;&lt;div style=&quot;&quot;&gt;&lt;span style=&quot;background-color: light-dark(rgb(255, 255, 255), rgb(18, 18, 18)); color: light-dark(rgb(0, 0, 0), rgb(255, 255, 255));&quot;&gt;&lt;br&gt;&lt;/span&gt;&lt;/div&gt;&lt;div style=&quot;&quot;&gt;&lt;span style=&quot;background-color: light-dark(rgb(255, 255, 255), rgb(18, 18, 18)); color: light-dark(rgb(0, 0, 0), rgb(255, 255, 255));&quot;&gt;&lt;br&gt;&lt;/span&gt;&lt;/div&gt;&lt;div style=&quot;&quot;&gt;&lt;span style=&quot;background-color: light-dark(rgb(255, 255, 255), rgb(18, 18, 18)); color: light-dark(rgb(0, 0, 0), rgb(255, 255, 255));&quot;&gt;Role with permission to stop/start resources&lt;/span&gt;&lt;/div&gt;&lt;/font&gt;&lt;/span&gt;" style="whiteSpace=wrap;html=1;aspect=fixed;fillColor=none;align=center;" vertex="1" parent="1">
          <mxGeometry x="589.99" y="270" width="212.7" height="212.7" as="geometry" />
        </mxCell>
        <mxCell id="2rLz22v1sMBaOfcuC89U-29" style="edgeStyle=orthogonalEdgeStyle;rounded=0;orthogonalLoop=1;jettySize=auto;html=1;" edge="1" parent="1" source="2rLz22v1sMBaOfcuC89U-17" target="2rLz22v1sMBaOfcuC89U-15">
          <mxGeometry relative="1" as="geometry" />
        </mxCell>
        <mxCell id="2rLz22v1sMBaOfcuC89U-17" value="" style="whiteSpace=wrap;html=1;aspect=fixed;fillColor=none;" vertex="1" parent="1">
          <mxGeometry x="900" y="270" width="212.7" height="212.7" as="geometry" />
        </mxCell>
        <mxCell id="2rLz22v1sMBaOfcuC89U-1" value="" style="image;aspect=fixed;html=1;points=[];align=center;fontSize=12;image=img/lib/azure2/general/Tags.svg;" vertex="1" parent="1">
          <mxGeometry x="989.04" y="385" width="36.92" height="40" as="geometry" />
        </mxCell>
        <mxCell id="2rLz22v1sMBaOfcuC89U-2" value="&lt;font style=&quot;font-size: 10px;&quot;&gt;Tag values to shut down/start&amp;nbsp;&lt;/font&gt;" style="text;html=1;align=center;verticalAlign=middle;whiteSpace=wrap;rounded=0;" vertex="1" parent="1">
          <mxGeometry x="977.5" y="440" width="60" height="30" as="geometry" />
        </mxCell>
        <mxCell id="2rLz22v1sMBaOfcuC89U-3" value="" style="outlineConnect=0;dashed=0;verticalLabelPosition=bottom;verticalAlign=top;align=center;html=1;shape=mxgraph.aws3.lambda;fillColor=#F58534;gradientColor=none;" vertex="1" parent="1">
          <mxGeometry x="610" y="280" width="50" height="60" as="geometry" />
        </mxCell>
        <mxCell id="2rLz22v1sMBaOfcuC89U-4" value="" style="outlineConnect=0;dashed=0;verticalLabelPosition=bottom;verticalAlign=top;align=center;html=1;shape=mxgraph.aws3.ec2;fillColor=#F58534;gradientColor=none;" vertex="1" parent="1">
          <mxGeometry x="920" y="280" width="48" height="55" as="geometry" />
        </mxCell>
        <mxCell id="2rLz22v1sMBaOfcuC89U-46" style="edgeStyle=orthogonalEdgeStyle;rounded=0;orthogonalLoop=1;jettySize=auto;html=1;entryX=0;entryY=0.5;entryDx=0;entryDy=0;" edge="1" parent="1" source="2rLz22v1sMBaOfcuC89U-5" target="2rLz22v1sMBaOfcuC89U-22">
          <mxGeometry relative="1" as="geometry" />
        </mxCell>
        <mxCell id="2rLz22v1sMBaOfcuC89U-5" value="" style="points=[];aspect=fixed;html=1;align=center;shadow=0;dashed=0;fillColor=#FF6A00;strokeColor=none;shape=mxgraph.alibaba_cloud.eventbridge;" vertex="1" parent="1">
          <mxGeometry x="270" y="345.55" width="60.65" height="60.65" as="geometry" />
        </mxCell>
        <mxCell id="2rLz22v1sMBaOfcuC89U-9" value="&lt;span style=&quot;color: rgb(0, 0, 0); font-family: Helvetica; font-size: 12px; font-style: normal; font-variant-ligatures: normal; font-variant-caps: normal; letter-spacing: normal; orphans: 2; text-align: center; text-indent: 0px; text-transform: none; widows: 2; word-spacing: 0px; -webkit-text-stroke-width: 0px; white-space: normal; background-color: rgb(255, 255, 255); text-decoration-thickness: initial; text-decoration-style: initial; text-decoration-color: initial; float: none; display: inline !important;&quot;&gt;&lt;b&gt;Eventbridge&lt;/b&gt;&lt;/span&gt;" style="text;whiteSpace=wrap;html=1;" vertex="1" parent="1">
          <mxGeometry x="260.49" y="316.35" width="250" height="40" as="geometry" />
        </mxCell>
        <mxCell id="2rLz22v1sMBaOfcuC89U-10" value="&lt;div style=&quot;text-align: center;&quot;&gt;&lt;span style=&quot;color: light-dark(rgb(0, 0, 0), rgb(255, 255, 255));&quot;&gt;Shuts down instances based on tag detection on EC2 instances&lt;/span&gt;&lt;/div&gt;" style="text;whiteSpace=wrap;html=1;" vertex="1" parent="1">
          <mxGeometry x="634.52" y="523" width="128.65" height="40" as="geometry" />
        </mxCell>
        <mxCell id="2rLz22v1sMBaOfcuC89U-11" value="&lt;span style=&quot;color: rgb(0, 0, 0); font-family: Helvetica; font-size: 12px; font-style: normal; font-variant-ligatures: normal; font-variant-caps: normal; letter-spacing: normal; orphans: 2; text-align: center; text-indent: 0px; text-transform: none; widows: 2; word-spacing: 0px; -webkit-text-stroke-width: 0px; white-space: normal; background-color: rgb(255, 255, 255); text-decoration-thickness: initial; text-decoration-style: initial; text-decoration-color: initial; float: none; display: inline !important;&quot;&gt;&lt;b&gt;Lambda&lt;/b&gt;&lt;/span&gt;" style="text;whiteSpace=wrap;html=1;" vertex="1" parent="1">
          <mxGeometry x="660" y="240" width="250" height="40" as="geometry" />
        </mxCell>
        <mxCell id="2rLz22v1sMBaOfcuC89U-15" value="" style="outlineConnect=0;dashed=0;verticalLabelPosition=bottom;verticalAlign=top;align=center;html=1;shape=mxgraph.aws3.sns;fillColor=#D9A741;gradientColor=none;" vertex="1" parent="1">
          <mxGeometry x="1330" y="338.1" width="76.5" height="76.5" as="geometry" />
        </mxCell>
        <mxCell id="2rLz22v1sMBaOfcuC89U-16" value="&lt;span style=&quot;color: rgb(0, 0, 0); font-family: Helvetica; font-size: 12px; font-style: normal; font-variant-ligatures: normal; font-variant-caps: normal; letter-spacing: normal; orphans: 2; text-align: center; text-indent: 0px; text-transform: none; widows: 2; word-spacing: 0px; -webkit-text-stroke-width: 0px; white-space: normal; background-color: rgb(255, 255, 255); text-decoration-thickness: initial; text-decoration-style: initial; text-decoration-color: initial; float: none; display: inline !important;&quot;&gt;&lt;b&gt;SNS&lt;/b&gt;&lt;/span&gt;" style="text;whiteSpace=wrap;html=1;" vertex="1" parent="1">
          <mxGeometry x="1350" y="300" width="60" height="40" as="geometry" />
        </mxCell>
        <mxCell id="2rLz22v1sMBaOfcuC89U-20" value="&lt;b&gt;EC2/RDS/ECS&lt;/b&gt;" style="text;whiteSpace=wrap;html=1;" vertex="1" parent="1">
          <mxGeometry x="968" y="240" width="60" height="40" as="geometry" />
        </mxCell>
        <mxCell id="2rLz22v1sMBaOfcuC89U-21" value="" style="outlineConnect=0;dashed=0;verticalLabelPosition=bottom;verticalAlign=top;align=center;html=1;shape=mxgraph.aws3.role;fillColor=#759C3E;gradientColor=none;" vertex="1" parent="1">
          <mxGeometry x="690" y="380" width="30" height="26.2" as="geometry" />
        </mxCell>
        <mxCell id="2rLz22v1sMBaOfcuC89U-33" value="" style="rounded=1;whiteSpace=wrap;html=1;fillColor=#E6E6E6;glass=1;shadow=0;" vertex="1" parent="1">
          <mxGeometry x="917.5" y="508" width="180" height="85" as="geometry" />
        </mxCell>
        <mxCell id="2rLz22v1sMBaOfcuC89U-32" value="&lt;div style=&quot;text-align: center;&quot;&gt;&lt;span style=&quot;color: light-dark(rgb(0, 0, 0), rgb(255, 255, 255));&quot;&gt;Once lambda runs, EC2 shuts down as long as tags are on the instance&lt;/span&gt;&lt;/div&gt;" style="text;whiteSpace=wrap;html=1;" vertex="1" parent="1">
          <mxGeometry x="930" y="520" width="155" height="30" as="geometry" />
        </mxCell>
        <mxCell id="2rLz22v1sMBaOfcuC89U-45" value="" style="rounded=1;whiteSpace=wrap;html=1;fillColor=#E6E6E6;glass=1;shadow=0;" vertex="1" parent="1">
          <mxGeometry x="245.32999999999998" y="438" width="110" height="90" as="geometry" />
        </mxCell>
        <mxCell id="2rLz22v1sMBaOfcuC89U-7" value="&lt;span style=&quot;color: rgb(0, 0, 0); font-family: Helvetica; font-size: 12px; font-style: normal; font-variant-ligatures: normal; font-variant-caps: normal; font-weight: 400; letter-spacing: normal; orphans: 2; text-align: center; text-indent: 0px; text-transform: none; widows: 2; word-spacing: 0px; -webkit-text-stroke-width: 0px; white-space: normal; text-decoration-thickness: initial; text-decoration-style: initial; text-decoration-color: initial; float: none; display: inline !important;&quot;&gt;Schedule time based rules to trigger lambda&lt;/span&gt;" style="text;whiteSpace=wrap;html=1;rounded=1;glass=0;" vertex="1" parent="1">
          <mxGeometry x="260.49" y="450" width="79.67" height="100" as="geometry" />
        </mxCell>
        <mxCell id="2rLz22v1sMBaOfcuC89U-47" value="" style="outlineConnect=0;dashed=0;verticalLabelPosition=bottom;verticalAlign=top;align=center;html=1;shape=mxgraph.aws3.rds;fillColor=#2E73B8;gradientColor=none;" vertex="1" parent="1">
          <mxGeometry x="1054" y="283" width="47.48" height="54" as="geometry" />
        </mxCell>
        <mxCell id="2rLz22v1sMBaOfcuC89U-49" value="" style="points=[];aspect=fixed;html=1;align=center;shadow=0;dashed=0;fillColor=#FF6A00;strokeColor=none;shape=mxgraph.alibaba_cloud.ecs_elastic_compute_service;" vertex="1" parent="1">
          <mxGeometry x="990" y="294" width="40" height="37.29" as="geometry" />
        </mxCell>
      </root>
    </mxGraphModel>
  </diagram>
</mxfile>
